<svg width="30" height="30" viewBox="0 0 30 30" fill="none" xmlns="http://www.w3.org/2000/svg">
<path d="M14.9965 1.68902e-06C11.8489 -0.00092295 8.78087 0.989104 6.22722 2.82976C3.67357 4.67041 1.76389 7.26831 0.768842 10.2552C-0.226202 13.2422 -0.256126 16.4666 0.683312 19.4715C1.62275 22.4763 3.48389 25.1093 6.00294 26.997C6.08849 27.0572 6.18893 27.0928 6.29332 27.0998C6.3977 27.1069 6.50201 27.0851 6.59485 27.0368C6.6877 26.9886 6.76551 26.9158 6.81981 26.8263C6.8741 26.7369 6.90278 26.6342 6.90272 26.5296L6.91352 14.571C7.00373 12.8451 7.64347 11.1933 8.73923 9.85705C9.83499 8.52079 11.3293 7.57012 13.0038 7.144C14.6783 6.71787 16.4452 6.83863 18.0461 7.48862C19.6471 8.13861 20.9983 9.28375 21.9021 10.7567C22.806 12.2296 23.2151 13.9531 23.0698 15.6752C22.9245 17.3973 22.2323 19.0278 21.0944 20.3284C19.9565 21.6289 18.4325 22.5313 16.7453 22.9037C15.058 23.276 13.2959 23.0989 11.7165 22.398C11.7165 22.398 11.7129 22.398 11.7087 22.398C11.6232 22.3606 11.5299 22.3448 11.4369 22.3518C11.3438 22.3588 11.2539 22.3885 11.175 22.4383C11.0961 22.488 11.0305 22.5564 10.9841 22.6373C10.9376 22.7183 10.9117 22.8093 10.9085 22.9026V28.9926C10.9088 29.1145 10.9479 29.2331 11.0201 29.3312C11.0924 29.4293 11.1941 29.5017 11.3104 29.538C13.3717 30.0619 15.5208 30.1413 17.6151 29.7708C19.7093 29.4004 21.7009 28.5886 23.4575 27.3894C25.2141 26.1902 26.6956 24.631 27.8037 22.8153C28.9118 20.9995 29.6211 18.9688 29.8845 16.8579C30.1479 14.747 29.9595 12.6042 29.3316 10.5717C28.7038 8.53927 27.6509 6.66363 26.2429 5.06931C24.8348 3.47499 23.1039 2.19847 21.1649 1.32447C19.226 0.45047 17.1233 -0.00100776 14.9965 1.68902e-06Z" fill="white"/>
<mask id="mask0_1402_4744" style="mask-type:luminance" maskUnits="userSpaceOnUse" x="0" y="0" width="23" height="15">
<path d="M14.9965 7.30689e-06C11.3797 0.000359103 7.88495 1.30811 5.15607 3.68229C2.42718 6.05648 0.648054 9.33714 0.146484 12.9198C2.20518 14.1373 4.5266 14.8414 6.91463 14.9724V14.5674C6.99298 13.0861 7.47699 11.6549 8.31376 10.4302C9.15052 9.20553 10.3078 8.23454 11.6591 7.62342C13.0104 7.0123 14.5037 6.78457 15.9756 6.96513C17.4476 7.14569 18.8416 7.72759 20.0052 8.64721C21.3859 6.69751 22.2777 4.44442 22.6056 2.07781C20.3015 0.715036 17.6733 -0.00264172 14.9965 7.30689e-06Z" fill="white"/>
</mask>
<g mask="url(#mask0_1402_4744)">
<path d="M12.2348 -11.1997L-7.31543 6.91357L10.5178 26.1711L30.0681 8.05781L12.2348 -11.1997Z" fill="url(#paint0_linear_1402_4744)"/>
</g>
<mask id="mask1_1402_4744" style="mask-type:luminance" maskUnits="userSpaceOnUse" x="10" y="10" width="20" height="20">
<path d="M20.2651 21.1434C19.1061 22.1401 17.688 22.7872 16.1757 23.0094C14.6635 23.2316 13.1192 23.0198 11.7226 22.3986C11.7208 22.3991 11.719 22.3991 11.7172 22.3986C11.6317 22.3612 11.5384 22.3454 11.4453 22.3524C11.3523 22.3594 11.2624 22.3891 11.1835 22.4389C11.1045 22.4886 11.039 22.557 10.9925 22.6379C10.9461 22.7188 10.9202 22.8099 10.917 22.9032V28.9932C10.9172 29.115 10.9563 29.2337 11.0286 29.3318C11.1009 29.4298 11.2026 29.5023 11.3189 29.5386C13.9454 30.2029 16.7028 30.1431 19.298 29.3655C21.8933 28.5879 24.2295 27.1217 26.0584 25.1225C27.8874 23.1234 29.1407 20.666 29.6853 18.0115C30.2299 15.3569 30.0453 12.6044 29.1513 10.0464C28.7023 12.4869 27.6556 14.7781 26.1049 16.7151C24.5542 18.6521 22.5478 20.1746 20.2651 21.1464" fill="white"/>
</mask>
<g mask="url(#mask1_1402_4744)">
<path d="M23.5479 1.0206L1.47949 16.7866L17.3592 39.025L39.4276 23.2589L23.5479 1.0206Z" fill="url(#paint1_linear_1402_4744)"/>
</g>
<path d="M11.6637 11.4282C10.9227 11.4282 10.212 11.7227 9.68801 12.2468C9.16401 12.7709 8.86963 13.4818 8.86963 14.223H13.1238V20.2128C14.0402 20.4493 15.0015 20.4493 15.9179 20.2128V14.223H17.4523C18.1934 14.223 18.9041 13.9286 19.4281 13.4044C19.9521 12.8803 20.2465 12.1694 20.2465 11.4282H11.6637Z" fill="white"/>
<path d="M15.9103 14.2158H13.1138V17.7126H15.9103V14.2158Z" fill="url(#paint2_linear_1402_4744)"/>
<defs>
<linearGradient id="paint0_linear_1402_4744" x1="2.4597" y1="-2.14304" x2="20.2976" y2="17.1101" gradientUnits="userSpaceOnUse">
<stop stop-color="#E5EBFF"/>
<stop offset="1" stop-color="white"/>
</linearGradient>
<linearGradient id="paint1_linear_1402_4744" x1="12.5137" y1="8.90361" x2="28.3985" y2="31.1383" gradientUnits="userSpaceOnUse">
<stop stop-color="white"/>
<stop offset="1" stop-color="#E5EBFF"/>
</linearGradient>
<linearGradient id="paint2_linear_1402_4744" x1="14.512" y1="14.2158" x2="14.512" y2="17.7126" gradientUnits="userSpaceOnUse">
<stop stop-color="#E5EBFF"/>
<stop offset="1" stop-color="white"/>
</linearGradient>
</defs>
</svg>
